<svg width="40" height="36" viewBox="0 0 40 36" fill="none" xmlns="http://www.w3.org/2000/svg">
<path d="M14.3386 33.8145C14.2315 34.0596 14.1475 34.2118 14.0992 34.3766C13.7799 35.4543 13.011 35.8663 11.9523 35.8663C10.3076 35.8663 8.66071 35.8684 7.01595 35.8705C5.47621 35.8705 3.93437 35.8853 2.39463 35.8642C0.823389 35.8431 0.134393 35.1627 0.130192 33.6117C0.119689 28.5741 0.119689 23.5387 0.130192 18.5011C0.134393 16.8487 0.777175 16.2106 2.43875 16.2063C6.21982 16.1958 10.0009 16.1873 13.782 16.2338C14.4626 16.2423 14.931 16.0479 15.2881 15.509C16.2775 14.0151 17.2395 12.5021 18.252 11.0251C19.6531 8.97965 20.4114 6.79262 19.9325 4.27174C19.8485 3.8301 19.8653 3.35044 19.9325 2.90247C19.9934 2.49676 20.1111 2.06569 20.3295 1.72549C21.6424 -0.309393 25.894 -0.00299862 26.5977 2.07626C27.1061 3.57231 27.7257 5.03033 28.2257 6.52849C28.6983 7.95059 28.4 9.38747 28.1521 10.8138C28.0492 11.4033 27.9211 11.9908 27.8581 12.5845C27.7803 13.3093 27.9106 13.472 28.6458 13.4974C29.6604 13.5333 30.6771 13.5122 31.6917 13.5143C33.1978 13.5164 34.7039 13.5671 36.2079 13.5058C39.7159 13.36 40.7116 16.5656 39.5185 18.854C39.1719 19.5175 39.0332 20.1049 39.2202 20.8445C39.466 21.8186 39.132 22.7273 38.6236 23.5556C38.3736 23.9634 38.2182 24.3459 38.3631 24.8424C38.6929 25.9603 38.4199 27.0105 37.8758 27.9909C37.6237 28.4452 37.5502 28.8594 37.63 29.3876C38.067 32.2741 36.3004 34.4928 33.3994 34.6133C31.1623 34.7062 28.9189 34.6492 26.6775 34.6534C23.7724 34.6576 20.8652 34.6386 17.9601 34.6619C16.8551 34.6703 15.7922 34.59 14.8386 33.9582C14.7272 33.8843 14.576 33.88 14.3386 33.8145ZM25.3437 15.5745C25.4046 15.0188 25.4256 14.6765 25.4823 14.3405C25.747 12.743 26.0011 11.1413 26.2994 9.55018C26.7511 7.1286 25.7113 5.06414 24.7639 2.98488C24.5013 2.41012 23.5497 2.22417 22.7788 2.45027C22.094 2.65313 21.9575 2.86443 21.9596 3.82165C21.9617 4.84226 21.9533 5.8671 22.0079 6.8856C22.0604 7.8724 21.8483 8.76834 21.3378 9.60723C20.1279 11.5872 18.9389 13.5798 17.7185 15.5534C16.893 16.8889 15.849 18.0236 14.4626 18.7822C13.7862 19.1541 13.5782 19.6823 13.5845 20.424C13.6097 23.1372 13.5929 25.8504 13.5929 28.5636C13.5929 29.1975 13.6013 29.8314 13.5992 30.4653C13.5971 30.9386 13.7526 31.2302 14.263 31.3824C14.7545 31.5282 15.1852 31.879 15.6683 32.0691C16.2124 32.2825 16.7837 32.5615 17.3467 32.5657C22.5289 32.6037 27.7131 32.5995 32.8974 32.5678C33.4309 32.5636 34.0296 32.4051 34.4833 32.1283C35.7626 31.3486 35.7374 29.9286 34.4939 29.0813C34.4161 29.0284 34.372 28.9207 34.3111 28.8383C34.351 28.7263 34.3573 28.591 34.4245 28.5382C34.6157 28.3924 34.832 28.2762 35.0421 28.1578C36.6554 27.245 36.7835 25.8715 35.3614 24.6903C34.9434 24.3438 34.9875 24.1641 35.4685 23.8345C35.9496 23.5049 36.481 23.1858 36.8297 22.7357C37.336 22.0849 37.2456 21.2122 36.7583 20.6903C36.481 20.3944 36.1869 20.1155 35.8991 19.8302C36.2394 19.5619 36.5713 19.283 36.9221 19.0294C37.6952 18.4715 38.1195 17.4235 37.8758 16.6268C37.6489 15.883 37.1154 15.5935 35.9202 15.5766C35.6408 15.5724 35.3593 15.5745 35.0799 15.5745C32.3134 15.5745 29.5469 15.5745 26.7784 15.5745C26.3666 15.5745 25.9549 15.5745 25.3437 15.5745ZM11.7276 25.9708C11.7276 23.7901 11.7339 21.6116 11.7255 19.4309C11.7213 18.2074 11.6751 18.1546 10.505 18.1504C8.12926 18.1398 5.75139 18.1398 3.37561 18.1504C2.21608 18.1546 2.14676 18.2285 2.14466 19.433C2.13836 23.7922 2.13836 28.1536 2.14466 32.5129C2.14676 33.7046 2.23499 33.7976 3.37771 33.804C5.75349 33.8166 8.13136 33.8166 10.5071 33.804C11.6583 33.7976 11.7213 33.7258 11.7255 32.5108C11.7339 30.3301 11.7276 28.1494 11.7276 25.9708Z" fill="#1D1D1D"/>
</svg>
