<svg width="140" height="42" viewBox="0 0 140 42" fill="none" xmlns="http://www.w3.org/2000/svg">
<path fill-rule="evenodd" clip-rule="evenodd" d="M119.544 36.4628C118.75 38.4894 117.764 39.9225 116.594 40.7535C115.424 41.5845 114.004 42 112.349 42C111.446 42 110.552 41.8558 109.675 41.576C108.789 41.2962 108.07 40.8976 107.51 40.3973L109.349 36.7595C109.733 37.1072 110.185 37.3786 110.686 37.5736C111.187 37.7686 111.689 37.8704 112.182 37.8704C112.867 37.8704 113.427 37.7008 113.862 37.3616C114.296 37.0224 114.681 36.4627 115.023 35.6741L115.09 35.513L107.569 17.765H112.767L117.639 29.7214L122.544 17.765H127.383L119.544 36.4628ZM100.541 24.7692C101.961 25.0067 103.123 25.2695 104.026 25.5409C104.928 25.8122 105.714 26.3125 106.382 27.0333C107.051 27.7541 107.385 28.7547 107.385 30.0436C107.385 31.1375 107.059 32.1042 106.416 32.9606C105.772 33.8086 104.828 34.47 103.591 34.9449C102.354 35.4113 100.883 35.6487 99.187 35.6487C97.7496 35.6487 96.3373 35.4706 94.9585 35.106C93.5796 34.7414 92.4848 34.2919 91.6659 33.7492L93.3456 30.086C94.1228 30.5863 95.0587 30.9933 96.1535 31.3156C97.2482 31.6293 98.3262 31.7904 99.3792 31.7904C101.51 31.7904 102.572 31.2562 102.572 30.1878C102.572 29.6875 102.279 29.3228 101.702 29.1108C101.117 28.8904 100.232 28.7038 99.0282 28.5512C97.6076 28.3307 96.4376 28.0848 95.51 27.7965C94.5824 27.5082 93.7801 27.0079 93.1032 26.2871C92.4263 25.5663 92.0837 24.5403 92.0837 23.209C92.0837 22.0981 92.4013 21.106 93.0364 20.2411C93.6715 19.3761 94.5991 18.7062 95.8109 18.2314C97.0226 17.748 98.46 17.5106 100.123 17.5106C101.351 17.5106 102.572 17.6463 103.783 17.9176C105.003 18.189 106.006 18.5706 106.8 19.0454L105.12 22.6832C103.591 21.8098 101.928 21.3689 100.123 21.3689C99.0449 21.3689 98.2427 21.5215 97.6995 21.8268C97.1647 22.132 96.8889 22.5221 96.8889 23.0055C96.8889 23.5482 97.1814 23.9297 97.758 24.1502C98.343 24.3707 99.2706 24.5742 100.541 24.7692ZM83.6266 11.083H88.6574V35.3773H83.6266V11.083ZM67.0383 28.0085C67.2723 29.1024 67.8322 29.9588 68.7181 30.5948C69.6039 31.2308 70.6986 31.5445 72.0107 31.5445C72.9132 31.5445 73.7154 31.4088 74.4174 31.1375C75.1194 30.8661 75.7712 30.4337 76.3729 29.8401L79.0554 32.791C77.4175 34.6905 75.0358 35.6402 71.8937 35.6402C69.9382 35.6402 68.1999 35.2502 66.6957 34.4785C65.1915 33.7068 64.0299 32.6299 63.2109 31.2562C62.392 29.8825 61.9825 28.3222 61.9825 26.5754C61.9825 24.854 62.3836 23.2938 63.1942 21.9116C63.9965 20.5294 65.1079 19.444 66.5202 18.6723C67.9325 17.9007 69.5036 17.5106 71.2502 17.5106C72.9466 17.5106 74.4843 17.8837 75.8631 18.6214C77.242 19.3677 78.32 20.4276 79.1056 21.8183C79.8911 23.2005 80.2839 24.8116 80.2839 26.6517C80.2839 26.7196 80.2505 27.1775 80.1836 28.0254H67.0383V28.0085ZM74.1082 22.361C73.331 21.6996 72.3867 21.3604 71.2669 21.3604C70.1304 21.3604 69.1693 21.6911 68.3921 22.344C67.615 22.997 67.147 23.8958 66.9715 25.0321H75.5205C75.3534 23.9213 74.8854 23.0309 74.1082 22.361ZM49.1631 35.3773L41.8676 17.765H47.0656L51.8707 29.7468L56.843 17.765H61.6816L54.3527 35.3858H49.1631V35.3773ZM0 21.4876C0 11.5578 10.7719 7.89461 17.6747 14.0339C24.6526 7.80981 35.4997 11.9394 35.4412 21.4876C35.3827 31.4173 22.6637 39.8377 17.6747 42C12.4433 39.7274 0 31.4173 0 21.4876ZM17.7666 16.2726C16.7554 16.2726 15.9448 17.1036 15.9448 18.1211C15.9448 19.1472 16.7638 19.9697 17.7666 19.9697C18.7778 19.9697 19.5884 19.1387 19.5884 18.1211C19.5967 17.1036 18.7778 16.2726 17.7666 16.2726ZM17.7666 22.8019C16.864 22.8019 16.137 23.5397 16.137 24.4555C16.137 25.3713 16.8724 26.109 17.7666 26.109C18.6691 26.109 19.3962 25.3628 19.3962 24.4555C19.4045 23.5482 18.6691 22.8019 17.7666 22.8019ZM17.7666 29.3313C16.9727 29.3313 16.3292 29.9843 16.3292 30.7898C16.3292 31.5954 16.9727 32.2483 17.7666 32.2483C18.5605 32.2483 19.204 31.5954 19.204 30.7898C19.2123 29.9843 18.5605 29.3313 17.7666 29.3313ZM19.0201 37.1326C19.0201 36.4288 18.4602 35.8692 17.7749 35.8692C17.0897 35.8692 16.5298 36.4373 16.5298 37.1326C16.5298 37.8365 17.0897 38.3961 17.7749 38.3961C18.4602 38.3961 19.0201 37.828 19.0201 37.1326ZM17.7666 7.11448C18.878 7.11448 19.7806 8.03028 19.7806 9.15809C19.7806 10.2859 18.878 11.2017 17.7666 11.2017C16.6551 11.2017 15.7526 10.2859 15.7526 9.15809C15.7526 8.03028 16.6551 7.11448 17.7666 7.11448ZM17.7666 4.48577C16.5465 4.48577 15.5604 3.48516 15.5604 2.24712C15.5604 1.00061 16.5465 0 17.7666 0C18.9867 0 19.9728 1.00061 19.9728 2.23864C19.9728 3.47668 18.9867 4.48577 17.7666 4.48577Z" fill="#F0332B"/>
<path d="M140 5.52538C140 6.40049 139.855 7.17892 139.564 7.86069C139.283 8.54246 138.902 9.12247 138.421 9.60073C137.939 10.0688 137.383 10.43 136.751 10.6844C136.119 10.9286 135.457 11.0508 134.765 11.0508C134.073 11.0508 133.411 10.9286 132.78 10.6844C132.148 10.43 131.591 10.0688 131.11 9.60073C130.629 9.12247 130.243 8.54246 129.952 7.86069C129.671 7.17892 129.531 6.40049 129.531 5.52538C129.531 4.66045 129.671 3.8871 129.952 3.20533C130.243 2.51339 130.629 1.93337 131.11 1.46529C131.591 0.987039 132.148 0.625803 132.78 0.381588C133.411 0.127196 134.073 0 134.765 0C135.457 0 136.119 0.127196 136.751 0.381588C137.383 0.625803 137.939 0.987039 138.421 1.46529C138.902 1.93337 139.283 2.51339 139.564 3.20533C139.855 3.8871 140 4.66045 140 5.52538ZM138.466 5.52538C138.466 4.91484 138.375 4.36027 138.195 3.86166C138.014 3.36305 137.759 2.93568 137.428 2.57953C137.107 2.22338 136.716 1.94864 136.254 1.7553C135.803 1.56196 135.307 1.46529 134.765 1.46529C134.224 1.46529 133.722 1.56196 133.261 1.7553C132.81 1.94864 132.419 2.22338 132.088 2.57953C131.767 2.93568 131.516 3.36305 131.336 3.86166C131.155 4.36027 131.065 4.91484 131.065 5.52538C131.065 6.13592 131.155 6.69049 131.336 7.1891C131.516 7.68771 131.767 8.11508 132.088 8.47123C132.419 8.82738 132.81 9.10212 133.261 9.29546C133.722 9.4888 134.224 9.58546 134.765 9.58546C135.307 9.58546 135.803 9.4888 136.254 9.29546C136.716 9.10212 137.107 8.82738 137.428 8.47123C137.759 8.11508 138.014 7.68771 138.195 7.1891C138.375 6.69049 138.466 6.13592 138.466 5.52538ZM135.683 8.12017C135.512 7.7335 135.367 7.3977 135.247 7.11278C135.126 6.81769 134.991 6.55312 134.841 6.31908H134.239V8.12017H132.78V2.90006C133.121 2.81866 133.437 2.76269 133.727 2.73216C134.028 2.69146 134.289 2.67111 134.51 2.67111C136.124 2.67111 136.931 3.28674 136.931 4.51799C136.931 5.14888 136.661 5.61187 136.119 5.90697C136.229 6.07995 136.325 6.24785 136.405 6.41066C136.495 6.5633 136.58 6.72611 136.661 6.89909C136.751 7.0619 136.836 7.24506 136.916 7.44858C137.007 7.64191 137.107 7.86578 137.217 8.12017H135.683ZM134.239 5.12853H134.51C134.83 5.12853 135.071 5.08783 135.232 5.00642C135.392 4.91484 135.472 4.74694 135.472 4.50273C135.472 4.29921 135.402 4.15675 135.262 4.07535C135.121 3.99394 134.916 3.95324 134.645 3.95324C134.575 3.95324 134.5 3.95833 134.419 3.9685C134.349 3.9685 134.289 3.97359 134.239 3.98377V5.12853Z" fill="#F0332B"/>
</svg>
